G04 #@! TF.FileFunction,Legend,Bot*
%FSLAX46Y46*%
G04 Gerber Fmt 4.6, Leading zero omitted, Abs format (unit mm)*
G04 Created by KiCad (PCBNEW 4.0.4-stable) date 10/08/17 18:19:30*
%MOMM*%
%LPD*%
G01*
G04 APERTURE LIST*
%ADD10C,0.100000*%
%ADD11C,0.150000*%
G04 APERTURE END LIST*
D10*
D11*
X153440000Y-81565000D02*
X122325000Y-81565000D01*
X122325000Y-81565000D02*
X122325000Y-133000000D01*
X122325000Y-133000000D02*
X153440000Y-133000000D01*
X153440000Y-133000000D02*
X153440000Y-81565000D01*
X133120000Y-87280000D02*
X143280000Y-87280000D01*
X143280000Y-87280000D02*
X143280000Y-82200000D01*
X143280000Y-82200000D02*
X133120000Y-82200000D01*
X133120000Y-82200000D02*
X133120000Y-87280000D01*
X129310000Y-125380000D02*
X129310000Y-106330000D01*
X129310000Y-106330000D02*
X147090000Y-106330000D01*
X147090000Y-106330000D02*
X147090000Y-125380000D01*
X128040000Y-131730000D02*
X148360000Y-131730000D01*
X148360000Y-131730000D02*
X148360000Y-125380000D01*
X148360000Y-125380000D02*
X128040000Y-125380000D01*
X128040000Y-125380000D02*
X128040000Y-131730000D01*
X140231905Y-77842381D02*
X140231905Y-78651905D01*
X140184286Y-78747143D01*
X140136667Y-78794762D01*
X140041429Y-78842381D01*
X139850952Y-78842381D01*
X139755714Y-78794762D01*
X139708095Y-78747143D01*
X139660476Y-78651905D01*
X139660476Y-77842381D01*
X138660476Y-78842381D02*
X139231905Y-78842381D01*
X138946191Y-78842381D02*
X138946191Y-77842381D01*
X139041429Y-77985238D01*
X139136667Y-78080476D01*
X139231905Y-78128095D01*
D10*
X139083333Y-83316667D02*
X139083333Y-83883333D01*
X139050000Y-83950000D01*
X139016667Y-83983333D01*
X138950000Y-84016667D01*
X138816667Y-84016667D01*
X138750000Y-83983333D01*
X138716667Y-83950000D01*
X138683333Y-83883333D01*
X138683333Y-83316667D01*
X138383334Y-83983333D02*
X138283334Y-84016667D01*
X138116667Y-84016667D01*
X138050000Y-83983333D01*
X138016667Y-83950000D01*
X137983334Y-83883333D01*
X137983334Y-83816667D01*
X138016667Y-83750000D01*
X138050000Y-83716667D01*
X138116667Y-83683333D01*
X138250000Y-83650000D01*
X138316667Y-83616667D01*
X138350000Y-83583333D01*
X138383334Y-83516667D01*
X138383334Y-83450000D01*
X138350000Y-83383333D01*
X138316667Y-83350000D01*
X138250000Y-83316667D01*
X138083334Y-83316667D01*
X137983334Y-83350000D01*
X137450000Y-83650000D02*
X137350000Y-83683333D01*
X137316667Y-83716667D01*
X137283333Y-83783333D01*
X137283333Y-83883333D01*
X137316667Y-83950000D01*
X137350000Y-83983333D01*
X137416667Y-84016667D01*
X137683333Y-84016667D01*
X137683333Y-83316667D01*
X137450000Y-83316667D01*
X137383333Y-83350000D01*
X137350000Y-83383333D01*
X137316667Y-83450000D01*
X137316667Y-83516667D01*
X137350000Y-83583333D01*
X137383333Y-83616667D01*
X137450000Y-83650000D01*
X137683333Y-83650000D01*
D11*
X142104762Y-91018571D02*
X141771428Y-91018571D01*
X141628571Y-91542381D02*
X142104762Y-91542381D01*
X142104762Y-90542381D01*
X141628571Y-90542381D01*
X141247619Y-91494762D02*
X141104762Y-91542381D01*
X140866666Y-91542381D01*
X140771428Y-91494762D01*
X140723809Y-91447143D01*
X140676190Y-91351905D01*
X140676190Y-91256667D01*
X140723809Y-91161429D01*
X140771428Y-91113810D01*
X140866666Y-91066190D01*
X141057143Y-91018571D01*
X141152381Y-90970952D01*
X141200000Y-90923333D01*
X141247619Y-90828095D01*
X141247619Y-90732857D01*
X141200000Y-90637619D01*
X141152381Y-90590000D01*
X141057143Y-90542381D01*
X140819047Y-90542381D01*
X140676190Y-90590000D01*
X140247619Y-91542381D02*
X140247619Y-90542381D01*
X139866666Y-90542381D01*
X139771428Y-90590000D01*
X139723809Y-90637619D01*
X139676190Y-90732857D01*
X139676190Y-90875714D01*
X139723809Y-90970952D01*
X139771428Y-91018571D01*
X139866666Y-91066190D01*
X140247619Y-91066190D01*
X139342857Y-90542381D02*
X138723809Y-90542381D01*
X139057143Y-90923333D01*
X138914285Y-90923333D01*
X138819047Y-90970952D01*
X138771428Y-91018571D01*
X138723809Y-91113810D01*
X138723809Y-91351905D01*
X138771428Y-91447143D01*
X138819047Y-91494762D01*
X138914285Y-91542381D01*
X139200000Y-91542381D01*
X139295238Y-91494762D01*
X139342857Y-91447143D01*
X138342857Y-90637619D02*
X138295238Y-90590000D01*
X138200000Y-90542381D01*
X137961904Y-90542381D01*
X137866666Y-90590000D01*
X137819047Y-90637619D01*
X137771428Y-90732857D01*
X137771428Y-90828095D01*
X137819047Y-90970952D01*
X138390476Y-91542381D01*
X137771428Y-91542381D01*
X136580952Y-91542381D02*
X136580952Y-90542381D01*
X136342857Y-90542381D01*
X136199999Y-90590000D01*
X136104761Y-90685238D01*
X136057142Y-90780476D01*
X136009523Y-90970952D01*
X136009523Y-91113810D01*
X136057142Y-91304286D01*
X136104761Y-91399524D01*
X136199999Y-91494762D01*
X136342857Y-91542381D01*
X136580952Y-91542381D01*
X135580952Y-91018571D02*
X135247618Y-91018571D01*
X135104761Y-91542381D02*
X135580952Y-91542381D01*
X135580952Y-90542381D01*
X135104761Y-90542381D01*
X134819047Y-90542381D02*
X134485714Y-91542381D01*
X134152380Y-90542381D01*
M02*
