G04 #@! TF.FileFunction,Copper,L1,Top,Signal*
%FSLAX46Y46*%
G04 Gerber Fmt 4.6, Leading zero omitted, Abs format (unit mm)*
G04 Created by KiCad (PCBNEW 4.0.4-stable) date 10/08/17 18:19:30*
%MOMM*%
%LPD*%
G01*
G04 APERTURE LIST*
%ADD10C,0.100000*%
%ADD11R,1.800000X1.800000*%
%ADD12C,1.800000*%
%ADD13C,1.524000*%
%ADD14R,2.000000X1.700000*%
%ADD15R,1.550000X1.300000*%
%ADD16R,1.700000X1.700000*%
%ADD17O,1.700000X1.700000*%
%ADD18C,0.600000*%
%ADD19C,0.250000*%
G04 APERTURE END LIST*
D10*
D11*
X125500000Y-130000000D03*
D12*
X128040000Y-130000000D03*
D11*
X136500000Y-130000000D03*
D12*
X139040000Y-130000000D03*
D11*
X148000000Y-130000000D03*
D12*
X150540000Y-130000000D03*
D11*
X121000000Y-85000000D03*
D12*
X123540000Y-85000000D03*
D13*
X134152000Y-97600000D03*
X136692000Y-97600000D03*
X139232000Y-97600000D03*
X141772000Y-97600000D03*
D14*
X132500000Y-124000000D03*
X128500000Y-124000000D03*
X147500000Y-124000000D03*
X143500000Y-124000000D03*
X140000000Y-124000000D03*
X136000000Y-124000000D03*
X127000000Y-83500000D03*
X131000000Y-83500000D03*
X136000000Y-121000000D03*
X140000000Y-121000000D03*
X132500000Y-121000000D03*
X128500000Y-121000000D03*
X143500000Y-121000000D03*
X147500000Y-121000000D03*
D15*
X123025000Y-134750000D03*
X130975000Y-134750000D03*
X123025000Y-139250000D03*
X130975000Y-139250000D03*
X134025000Y-134750000D03*
X141975000Y-134750000D03*
X134025000Y-139250000D03*
X141975000Y-139250000D03*
X145025000Y-134750000D03*
X152975000Y-134750000D03*
X145025000Y-139250000D03*
X152975000Y-139250000D03*
D13*
X125500000Y-125380000D03*
X125500000Y-122840000D03*
X125500000Y-120300000D03*
X125500000Y-117760000D03*
X125500000Y-115220000D03*
X125500000Y-112680000D03*
X125500000Y-110140000D03*
X125500000Y-107600000D03*
X125500000Y-105060000D03*
X125500000Y-102520000D03*
X125500000Y-99980000D03*
X125500000Y-97440000D03*
X125500000Y-94900000D03*
X125500000Y-92360000D03*
X125500000Y-89820000D03*
X150900000Y-125380000D03*
X150900000Y-122840000D03*
X150900000Y-120300000D03*
X150900000Y-117760000D03*
X150900000Y-115220000D03*
X150900000Y-112680000D03*
X150900000Y-110140000D03*
X150900000Y-107600000D03*
X150900000Y-105060000D03*
X150900000Y-102520000D03*
X150900000Y-99980000D03*
X150900000Y-97440000D03*
X150900000Y-94900000D03*
X150900000Y-92360000D03*
X150900000Y-89820000D03*
X134770000Y-78500000D03*
X137310000Y-78500000D03*
X139850000Y-78500000D03*
X142390000Y-78500000D03*
D16*
X121500000Y-90000000D03*
D17*
X121500000Y-92540000D03*
X121500000Y-95080000D03*
X121500000Y-97620000D03*
X121500000Y-100160000D03*
X121500000Y-102700000D03*
X121500000Y-105240000D03*
X121500000Y-107780000D03*
X121500000Y-110320000D03*
X121500000Y-112860000D03*
X121500000Y-115400000D03*
X121500000Y-117940000D03*
D16*
X125500000Y-78500000D03*
D17*
X128040000Y-78500000D03*
D18*
X132500000Y-120800000D03*
X132700000Y-117900000D03*
X140000000Y-124100000D03*
X148000000Y-107400000D03*
X148700000Y-111200000D03*
X137100000Y-110500000D03*
X136700000Y-113900000D03*
X135000000Y-113900000D03*
X129800000Y-117500000D03*
X128600000Y-124000000D03*
X143400000Y-124100000D03*
X143500000Y-117200000D03*
X135900000Y-124100000D03*
X136100000Y-111800000D03*
X140500000Y-121100000D03*
X142200000Y-129100000D03*
X156700000Y-125400000D03*
X146300000Y-118300000D03*
X134100000Y-134900000D03*
X130600000Y-126100000D03*
X138200000Y-86400000D03*
X137100000Y-117200000D03*
X134800000Y-117200000D03*
X131700000Y-117500000D03*
D19*
X134152000Y-97600000D02*
X134152000Y-98752000D01*
X148860000Y-94400000D02*
X150900000Y-92360000D01*
X143200000Y-94400000D02*
X148860000Y-94400000D01*
X140500000Y-97100000D02*
X143200000Y-94400000D01*
X140500000Y-98800000D02*
X140500000Y-97100000D01*
X139300000Y-100000000D02*
X140500000Y-98800000D01*
X135400000Y-100000000D02*
X139300000Y-100000000D01*
X134152000Y-98752000D02*
X135400000Y-100000000D01*
X121500000Y-112860000D02*
X123360000Y-112860000D01*
X132500000Y-120800000D02*
X132500000Y-121000000D01*
X132700000Y-117000000D02*
X132700000Y-117900000D01*
X130400000Y-114700000D02*
X132700000Y-117000000D01*
X128000000Y-114700000D02*
X130400000Y-114700000D01*
X127200000Y-113900000D02*
X128000000Y-114700000D01*
X124400000Y-113900000D02*
X127200000Y-113900000D01*
X123360000Y-112860000D02*
X124400000Y-113900000D01*
X132500000Y-121000000D02*
X132500000Y-122300000D01*
X134300000Y-126500000D02*
X135600000Y-127800000D01*
X134300000Y-123100000D02*
X134300000Y-126500000D01*
X133700000Y-122500000D02*
X134300000Y-123100000D01*
X132700000Y-122500000D02*
X133700000Y-122500000D01*
X132500000Y-122300000D02*
X132700000Y-122500000D01*
X136000000Y-121000000D02*
X136000000Y-120400000D01*
X136000000Y-120400000D02*
X137200000Y-119200000D01*
X141700000Y-119200000D02*
X143500000Y-121000000D01*
X137200000Y-119200000D02*
X141700000Y-119200000D01*
X132500000Y-121000000D02*
X136000000Y-121000000D01*
X125500000Y-130000000D02*
X125500000Y-129500000D01*
X125500000Y-129500000D02*
X127200000Y-127800000D01*
X127200000Y-127800000D02*
X135600000Y-127800000D01*
X135600000Y-127800000D02*
X137300000Y-127800000D01*
X137300000Y-127800000D02*
X137500000Y-128000000D01*
X136500000Y-130000000D02*
X136500000Y-129000000D01*
X146000000Y-128000000D02*
X148000000Y-130000000D01*
X137500000Y-128000000D02*
X146000000Y-128000000D01*
X136500000Y-129000000D02*
X137500000Y-128000000D01*
X128040000Y-130000000D02*
X128040000Y-130560000D01*
X128040000Y-130560000D02*
X127000000Y-131600000D01*
X127000000Y-131600000D02*
X124300000Y-131600000D01*
X124300000Y-131600000D02*
X123900000Y-131200000D01*
X123900000Y-131200000D02*
X123900000Y-128800000D01*
X123900000Y-128800000D02*
X124500000Y-128200000D01*
X124500000Y-128200000D02*
X125900000Y-128200000D01*
X125900000Y-128200000D02*
X127100000Y-127000000D01*
X127100000Y-127000000D02*
X131700000Y-127000000D01*
X131700000Y-127000000D02*
X132000000Y-126700000D01*
X132000000Y-126700000D02*
X132000000Y-126300000D01*
X132000000Y-126300000D02*
X132500000Y-125800000D01*
X132500000Y-125800000D02*
X132500000Y-124000000D01*
X140000000Y-124100000D02*
X140000000Y-124000000D01*
X147500000Y-124000000D02*
X147500000Y-124500000D01*
X147500000Y-124500000D02*
X149600000Y-126600000D01*
X149600000Y-126600000D02*
X149600000Y-129060000D01*
X149600000Y-129060000D02*
X150540000Y-130000000D01*
X127000000Y-83500000D02*
X125040000Y-83500000D01*
X125040000Y-83500000D02*
X123540000Y-85000000D01*
X136692000Y-94300000D02*
X140800000Y-94300000D01*
X145280000Y-89820000D02*
X150900000Y-89820000D01*
X140800000Y-94300000D02*
X145280000Y-89820000D01*
X123025000Y-139250000D02*
X123025000Y-137625000D01*
X119780000Y-110320000D02*
X121500000Y-110320000D01*
X117500000Y-112600000D02*
X119780000Y-110320000D01*
X117500000Y-130300000D02*
X117500000Y-112600000D01*
X121700000Y-134500000D02*
X117500000Y-130300000D01*
X121700000Y-136300000D02*
X121700000Y-134500000D01*
X123025000Y-137625000D02*
X121700000Y-136300000D01*
X130975000Y-139250000D02*
X134025000Y-139250000D01*
X141975000Y-139250000D02*
X145025000Y-139250000D01*
X145025000Y-139250000D02*
X152975000Y-139250000D01*
X134025000Y-139250000D02*
X141975000Y-139250000D01*
X123025000Y-139250000D02*
X130975000Y-139250000D01*
X136692000Y-97600000D02*
X136692000Y-94300000D01*
X136692000Y-94300000D02*
X136692000Y-86408000D01*
X139850000Y-83250000D02*
X139850000Y-78500000D01*
X136692000Y-86408000D02*
X139850000Y-83250000D01*
X150900000Y-115220000D02*
X149620000Y-115220000D01*
X141772000Y-104472000D02*
X141772000Y-97600000D01*
X143100000Y-105800000D02*
X141772000Y-104472000D01*
X146400000Y-105800000D02*
X143100000Y-105800000D01*
X148000000Y-107400000D02*
X146400000Y-105800000D01*
X148700000Y-114300000D02*
X148700000Y-111200000D01*
X149620000Y-115220000D02*
X148700000Y-114300000D01*
X125500000Y-117760000D02*
X129540000Y-117760000D01*
X137310000Y-81290000D02*
X137310000Y-78500000D01*
X135400000Y-83200000D02*
X137310000Y-81290000D01*
X135400000Y-87500000D02*
X135400000Y-83200000D01*
X129900000Y-93000000D02*
X135400000Y-87500000D01*
X129900000Y-102300000D02*
X129900000Y-93000000D01*
X134800000Y-107200000D02*
X129900000Y-102300000D01*
X134800000Y-108200000D02*
X134800000Y-107200000D01*
X137100000Y-110500000D02*
X134800000Y-108200000D01*
X135000000Y-113900000D02*
X136700000Y-113900000D01*
X129540000Y-117760000D02*
X129800000Y-117500000D01*
X128600000Y-124000000D02*
X128500000Y-124000000D01*
X125500000Y-112680000D02*
X138980000Y-112680000D01*
X143400000Y-124100000D02*
X143500000Y-124000000D01*
X138980000Y-112680000D02*
X143500000Y-117200000D01*
X125500000Y-110140000D02*
X134440000Y-110140000D01*
X135900000Y-124100000D02*
X136000000Y-124000000D01*
X134440000Y-110140000D02*
X136100000Y-111800000D01*
X125500000Y-107600000D02*
X126700000Y-107600000D01*
X131000000Y-90700000D02*
X131000000Y-83500000D01*
X129400000Y-92300000D02*
X131000000Y-90700000D01*
X129400000Y-104900000D02*
X129400000Y-92300000D01*
X126700000Y-107600000D02*
X129400000Y-104900000D01*
X130975000Y-134750000D02*
X130975000Y-134425000D01*
X130975000Y-134425000D02*
X132800000Y-132600000D01*
X140500000Y-121100000D02*
X140400000Y-121000000D01*
X142200000Y-129800000D02*
X142200000Y-129100000D01*
X139400000Y-132600000D02*
X142200000Y-129800000D01*
X132800000Y-132600000D02*
X139400000Y-132600000D01*
X140400000Y-121000000D02*
X140000000Y-121000000D01*
X130975000Y-134750000D02*
X130975000Y-134875000D01*
X130975000Y-134875000D02*
X133000000Y-136900000D01*
X156700000Y-132300000D02*
X156700000Y-125400000D01*
X154700000Y-134300000D02*
X156700000Y-132300000D01*
X154700000Y-135500000D02*
X154700000Y-134300000D01*
X153300000Y-136900000D02*
X154700000Y-135500000D01*
X133000000Y-136900000D02*
X153300000Y-136900000D01*
X123025000Y-134750000D02*
X130975000Y-134750000D01*
X130450000Y-121250000D02*
X130450000Y-120450000D01*
X146200000Y-118200000D02*
X146300000Y-118300000D01*
X136800000Y-118200000D02*
X146200000Y-118200000D01*
X136100000Y-118900000D02*
X136800000Y-118200000D01*
X132000000Y-118900000D02*
X136100000Y-118900000D01*
X130450000Y-120450000D02*
X132000000Y-118900000D01*
X128500000Y-121000000D02*
X130200000Y-121000000D01*
X134100000Y-134900000D02*
X134025000Y-134825000D01*
X130600000Y-121400000D02*
X130600000Y-126100000D01*
X130200000Y-121000000D02*
X130450000Y-121250000D01*
X130450000Y-121250000D02*
X130600000Y-121400000D01*
X134025000Y-134825000D02*
X134025000Y-134750000D01*
X134025000Y-134750000D02*
X141975000Y-134750000D01*
X147500000Y-121000000D02*
X147500000Y-111000000D01*
X148360000Y-110140000D02*
X150900000Y-110140000D01*
X147500000Y-111000000D02*
X148360000Y-110140000D01*
X152975000Y-134750000D02*
X152975000Y-133725000D01*
X153240000Y-110140000D02*
X150900000Y-110140000D01*
X155700000Y-112600000D02*
X153240000Y-110140000D01*
X155700000Y-131000000D02*
X155700000Y-112600000D01*
X152975000Y-133725000D02*
X155700000Y-131000000D01*
X145025000Y-134750000D02*
X152975000Y-134750000D01*
X125500000Y-78500000D02*
X125500000Y-80600000D01*
X126280000Y-89820000D02*
X125500000Y-89820000D01*
X129200000Y-86900000D02*
X126280000Y-89820000D01*
X129200000Y-82100000D02*
X129200000Y-86900000D01*
X128300000Y-81200000D02*
X129200000Y-82100000D01*
X126100000Y-81200000D02*
X128300000Y-81200000D01*
X125500000Y-80600000D02*
X126100000Y-81200000D01*
X150900000Y-107600000D02*
X155200000Y-107600000D01*
X139000000Y-85600000D02*
X138200000Y-86400000D01*
X157600000Y-85600000D02*
X139000000Y-85600000D01*
X158500000Y-86500000D02*
X157600000Y-85600000D01*
X158500000Y-104300000D02*
X158500000Y-86500000D01*
X155200000Y-107600000D02*
X158500000Y-104300000D01*
X121500000Y-100160000D02*
X122540000Y-100160000D01*
X123900000Y-96500000D02*
X125500000Y-94900000D01*
X123900000Y-98800000D02*
X123900000Y-96500000D01*
X122540000Y-100160000D02*
X123900000Y-98800000D01*
X121500000Y-102700000D02*
X122780000Y-102700000D01*
X122780000Y-102700000D02*
X125500000Y-99980000D01*
X121500000Y-107780000D02*
X122020000Y-107780000D01*
X122020000Y-107780000D02*
X123900000Y-105900000D01*
X123900000Y-105900000D02*
X123900000Y-104120000D01*
X123900000Y-104120000D02*
X125500000Y-102520000D01*
X121500000Y-115400000D02*
X122700000Y-115400000D01*
X134800000Y-117200000D02*
X137100000Y-117200000D01*
X130700000Y-116500000D02*
X131700000Y-117500000D01*
X123800000Y-116500000D02*
X130700000Y-116500000D01*
X122700000Y-115400000D02*
X123800000Y-116500000D01*
M02*
