M48
;DRILL file {KiCad 4.0.4-stable} date 10/08/17 18:19:36
;FORMAT={3:3/ absolute / metric / suppress leading zeros}
FMAT,2
METRIC,TZ
T1C0.400
T2C0.762
T3C0.900
T4C1.000
%
G90
G05
M71
T1
X128600Y-124000
X129800Y-117500
X130600Y-126100
X131700Y-117500
X132500Y-120800
X132700Y-117900
X134100Y-134900
X134800Y-117200
X135000Y-113900
X135900Y-124100
X136100Y-111800
X136700Y-113900
X137100Y-110500
X137100Y-117200
X138200Y-86400
X140000Y-124100
X140500Y-121100
X142200Y-129100
X143400Y-124100
X143500Y-117200
X146300Y-118300
X148000Y-107400
X148700Y-111200
X156700Y-125400
T2
X125500Y-89820
X125500Y-92360
X125500Y-94900
X125500Y-97440
X125500Y-99980
X125500Y-102520
X125500Y-105060
X125500Y-107600
X125500Y-110140
X125500Y-112680
X125500Y-115220
X125500Y-117760
X125500Y-120300
X125500Y-122840
X125500Y-125380
X134152Y-97600
X134770Y-78500
X136692Y-97600
X137310Y-78500
X139232Y-97600
X139850Y-78500
X141772Y-97600
X142390Y-78500
X150900Y-89820
X150900Y-92360
X150900Y-94900
X150900Y-97440
X150900Y-99980
X150900Y-102520
X150900Y-105060
X150900Y-107600
X150900Y-110140
X150900Y-112680
X150900Y-115220
X150900Y-117760
X150900Y-120300
X150900Y-122840
X150900Y-125380
T3
X121000Y-85000
X123540Y-85000
X125500Y-130000
X128040Y-130000
X136500Y-130000
X139040Y-130000
X148000Y-130000
X150540Y-130000
T4
X121500Y-90000
X121500Y-92540
X121500Y-95080
X121500Y-97620
X121500Y-100160
X121500Y-102700
X121500Y-105240
X121500Y-107780
X121500Y-110320
X121500Y-112860
X121500Y-115400
X121500Y-117940
X125500Y-78500
X128040Y-78500
T0
M30
